<svg xmlns="http://www.w3.org/2000/svg" xmlns:xlink="http://www.w3.org/1999/xlink" width="500" zoomAndPan="magnify" viewBox="0 0 375 374.999991" height="500" preserveAspectRatio="xMidYMid meet" version="1.0">
  <defs>
    <clipPath id="b8d9d9b60b">
      <path d="M 22.535156 25.976562 L 342 25.976562 L 342 349.226562 L 22.535156 349.226562 Z M 22.535156 25.976562 " clip-rule="nonzero"/>
    </clipPath>
  </defs>
  <path fill="#ffffff" d="M 238.703125 345.84375 L 212.921875 314.535156 L 234.101562 278.625 C 291.410156 275.996094 322.242188 273.914062 330.410156 262.523438 L 331.703125 260.207031 C 331.367188 261.019531 330.933594 261.792969 330.410156 262.523438 L 301.320312 314.535156 C 293.527344 323.695312 288.089844 326.335938 276.457031 326.503906 L 245.148438 326.503906 L 245.148438 342.15625 C 245.773438 345.824219 244.773438 346.914062 238.703125 345.84375 Z M 238.703125 345.84375 " fill-opacity="1" fill-rule="nonzero"/>
  <path fill="#ffffff" d="M 64.675781 264.8125 C 58.484375 275.371094 56.019531 281.421875 56.386719 292.4375 L 27.84375 241.792969 C 23.996094 230.40625 25.382812 225.25 30.605469 216.929688 L 51.785156 180.097656 C 51.472656 176.992188 51.003906 176.601562 49.941406 176.414062 L 39.8125 170.890625 C 37.429688 168.382812 38.1875 167.28125 40.734375 165.367188 L 79.40625 161.683594 C 87.578125 159.320312 91.199219 159.507812 94.140625 166.289062 L 106.109375 207.722656 C 107.398438 219.316406 104.996094 219.464844 96.902344 212.328125 C 94.863281 211.144531 93.835938 211.234375 92.296875 213.246094 Z M 64.675781 264.8125 " fill-opacity="1" fill-rule="nonzero"/>
  <path fill="#ffffff" d="M 101.503906 138.664062 L 77.566406 122.089844 C 77.941406 119.546875 79.132812 118.820312 80.328125 116.566406 L 122.683594 50.269531 C 126.546875 44.285156 128.949219 41.097656 134.652344 36.457031 C 141.746094 33.042969 145.957031 32.117188 154.910156 34.617188 C 166.1875 42.222656 173.5625 50.367188 184.375 68.683594 L 175.167969 84.339844 C 142.9375 89.816406 127.816406 102.183594 105.1875 136.824219 Z M 101.503906 138.664062 " fill-opacity="1" fill-rule="nonzero"/>
  <path fill="#ffffff" d="M 221.207031 113.804688 C 190.152344 56.632812 174.605469 31.957031 157.675781 29.09375 L 221.207031 29.09375 C 230.625 28.902344 236.742188 32.832031 243.308594 41.984375 L 268.167969 84.339844 C 270.621094 87.613281 272.4375 88.074219 276.457031 85.261719 C 279.46875 82.578125 281.273438 82.003906 283.824219 81.578125 C 286.574219 83.496094 286.480469 86.953125 283.824219 95.390625 L 274.613281 116.566406 L 337.226562 222.457031 C 339.109375 236.761719 337.699219 244.050781 326.179688 254.6875 C 311.429688 263.683594 302.011719 264.632812 283.824219 262.054688 L 278.296875 254.6875 C 276.179688 253.441406 274.921875 253.90625 272.773438 255.609375 C 270.597656 261.765625 268.683594 264.640625 262.644531 267.578125 L 231.335938 267.578125 C 227.929688 269.074219 226.117188 270.136719 224.890625 275.863281 L 203.714844 309.011719 C 209.078125 284.28125 211.742188 270.929688 201.871094 268.5 C 183.601562 258.140625 176.339844 251.890625 168.722656 239.953125 L 160.4375 226.140625 L 151.226562 222.460938 C 150.367188 242.109375 148.832031 252.507812 140.179688 267.578125 C 143.023438 273.359375 148.945312 277.339844 162.277344 285.074219 C 175.585938 294.621094 182.554688 301.914062 195.425781 320.0625 C 195.917969 324.8125 194.171875 326.796875 174.25 324.667969 L 92.296875 324.667969 C 73.808594 317.292969 67.683594 310.875 64.675781 297.042969 C 64.03125 283.121094 66.425781 276.167969 73.882812 264.8125 L 118.078125 265.738281 L 130.972656 243.636719 L 130.050781 224.300781 C 116.652344 204.285156 111.574219 192.222656 109.792969 168.132812 C 114.175781 139.492188 121.6875 125.347656 149.386719 105.519531 C 165.832031 97.6875 175.265625 94.851562 192.664062 96.308594 C 193.441406 110.070312 191.730469 116.773438 184.375 126.695312 L 156.753906 151.558594 C 155.253906 156.382812 156.15625 158.46875 163.199219 159.84375 L 167.804688 159.84375 C 172.863281 154.925781 176.753906 154.347656 185.296875 156.160156 C 191.957031 160.015625 194.3125 163.246094 193.585938 169.054688 C 195.421875 199.160156 198.972656 215.824219 224.890625 243.636719 C 246.847656 257.367188 258.230469 262.949219 267.378906 252.84375 L 267.378906 243.636719 L 269.414062 239.359375 C 269.808594 238.539062 270.011719 237.640625 270.011719 236.730469 C 270.011719 234.226562 268.488281 231.980469 266.164062 231.050781 L 260.800781 228.90625 L 260.800781 225.222656 L 265.550781 224.273438 C 268.207031 223.742188 270.214844 221.550781 270.511719 218.859375 L 270.746094 216.765625 C 270.867188 215.671875 270.695312 214.5625 270.246094 213.554688 L 267.25 206.804688 L 281.058594 206.804688 C 287.597656 206.382812 289.054688 203.277344 285.664062 190.230469 C 273.699219 168.707031 271.148438 161.695312 270.929688 154.320312 C 269.273438 143.394531 267.410156 139.175781 263.566406 134.0625 L 209.238281 131.300781 C 204.042969 128.0625 205.222656 125.953125 209.238281 122.089844 Z M 221.207031 113.804688 " fill-opacity="1" fill-rule="nonzero"/>
  <path fill="#ffffff" d="M 235.019531 165.371094 L 230.417969 163.527344 C 223.539062 165.980469 221.402344 165.789062 219.367188 163.527344 C 222.96875 156.359375 227.828125 154.015625 239.347656 151.558594 C 248.972656 151.890625 253.578125 152.800781 257.121094 158.003906 C 253.820312 161.132812 251.855469 162.222656 247.910156 161.6875 L 246.070312 163.527344 L 246.070312 169.972656 C 245.902344 173.640625 244.921875 174.886719 241.464844 175.5 C 238.878906 175.855469 237.773438 174.550781 235.941406 170.894531 Z M 235.019531 165.371094 " fill-opacity="1" fill-rule="nonzero"/>
  <g clip-path="url(#b8d9d9b60b)">
    <path stroke="#ffffff" stroke-width="0.2" stroke-opacity="1" stroke-linecap="butt" stroke-linejoin="miter" d="M 78.99822 72.668976 ... Z"/>
  </g>
</svg>
